PathFileType	4	(X/Y/Z)	RBDS020\RBDS020runT45.trc
DataRate	CameraRate	NumFrames	NumMarkers	Units	OrigDataRate	OrigDataStartFrame	OrigNumFrames
150.000000	150.000000	6	33	mm	150.000000	3937	4500
Frame#	Time	L.ASIS			L.Heel.Bottom			L.Heel.Lateral			L.Heel.Top			L.Iliac.Crest			L.MT1			L.MT5			L.PSIS			L.Shank.Bottom.Lateral			L.Shank.Bottom.Medial			L.Shank.Top.Lateral			L.Shank.Top.Medial			L.Thigh.Bottom.Lateral			L.Thigh.Bottom.Medial			L.Thigh.Top.Lateral			L.Thigh.Top.Medial			R.ASIS			R.ASY			R.Heel.Bottom			R.Heel.Lateral			R.Heel.Top			R.Iliac.Crest			R.MT1			R.MT5			R.PSIS			R.Shank.Bottom.Lateral			R.Shank.Bottom.Medial			R.Shank.Top.Lateral			R.Shank.Top.Medial			R.Thigh.Bottom.Lateral			R.Thigh.Bottom.Medial			R.Thigh.Top.Lateral			R.Thigh.Top.Medial			
		X1	Y1	Z1	X2	Y2	Z2	X3	Y3	Z3	X4	Y4	Z4	X5	Y5	Z5	X6	Y6	Z6	X7	Y7	Z7	X8	Y8	Z8	X9	Y9	Z9	X10	Y10	Z10	X11	Y11	Z11	X12	Y12	Z12	X13	Y13	Z13	X14	Y14	Z14	X15	Y15	Z15	X16	Y16	Z16	X17	Y17	Z17	X18	Y18	Z18	X19	Y19	Z19	X20	Y20	Z20	X21	Y21	Z21	X22	Y22	Z22	X23	Y23	Z23	X24	Y24	Z24	X25	Y25	Z25	X26	Y26	Z26	X27	Y27	Z27	X28	Y28	Z28	X29	Y29	Z29	X30	Y30	Z30	X31	Y31	Z31	X32	Y32	Z32	X33	Y33	Z33	

3938	26.24666666666667	2290.799879939317	995.9946675087593	851.7365601082131	1645.026225295079	198.3897712122529	916.926912232683	1674.609765049667	192.8241159910862	871.4855641417696	1683.869062795706	224.7547916645044	911.6158843847097	2251.74563420377	1046.800739162449	826.875055186846	1808.930584919094	59.08727195831769	945.5061296709719	1767.10513023485	69.55791553735939	840.7876584557677	2136.022357698988	1054.266285790359	922.1271142265817	1789.634568761588	257.0324543594947	846.7447086022213	1760.303434324398	283.4458607199094	886.2107081175284	1831.306891260459	324.9234207358785	833.9114330116863	1803.874532150878	350.6759409994996	872.4367061556989	2095.328961584186	684.4082750664504	799.6630878715106	2037.441994171154	706.6850161466099	837.7860153220862	2127.248267189157	788.3775165405499	789.31908610573	2073.937152392136	809.2976805295781	829.5395685351333	2281.878948574616	1014.220387969249	1079.657421337763	2391.142261498793	140.8406608517689	1016.804708895149	2196.406895196968	163.2049592468103	1001.57969084119	2225.397906152859	164.2798509841214	1046.844807088444	2219.514002747355	199.3605422436809	1005.535930340757	2226.62984884043	1065.409095535478	1119.9763827975	2398.98435527914	99.86831490623582	967.6524024917505	2371.277069312143	88.712677873467	1073.020157656266	2133.760810987249	1055.035480937612	1019.818289387477	2326.156690308861	280.8729245219428	1071.01029850271	2289.502086393216	303.3972891465689	1042.540736232013	2357.431982234763	358.304106704812	1087.587548289046	2316.357425263006	378.1381374976567	1059.667795963825	2378.857357357677	678.381777588871	1113.846628315458	2333.827479686589	641.4051996068301	1073.016989126836	2299.296317677021	755.265056311288	1128.715325455032	2256.277774218937	718.66006027879	1090.606006705583	
3939	26.25333333333333	2293.505500236173	997.79506997805	852.0847564994581	1632.793266884054	217.9989819481557	912.9544621880854	1662.66487380833	209.8023799922674	868.0462102048285	1673.794049867448	241.0096355784541	908.1913905441905	2255.848160515388	1049.875417629104	827.638590843524	1784.584585532866	65.0701120378353	944.5564771545647	1745.509850465656	77.84492272961019	839.5468589237074	2138.878895113004	1058.060170623349	922.1797467257248	1777.604072720704	267.3001639968785	844.9537630710416	1748.282798223534	293.6712676085969	884.5109183576584	1820.009362428843	334.9448483347103	832.9700635450165	1792.555900981331	360.6607238987279	871.4984528059083	2090.526245393316	690.7106697551657	800.7542124386306	2033.723370109501	714.8599442967068	839.5439761136541	2125.618064969158	793.6564774806214	789.9275168547529	2073.406795992883	816.2594339138701	830.9134369700776	2283.453746245402	1016.307427583476	1079.518375784438	2425.039485044458	137.4902046228941	1018.818951831439	2229.900732184944	143.883356286077	999.0189710633136	2257.495984976058	147.2858382098846	1044.958775924197	2249.774268937669	181.7000047662726	1003.541530181726	2227.892902627381	1068.017461130806	1119.991826044266	2437.314109993406	97.63947867260914	969.8926763656459	2408.359695986323	84.09930578840616	1074.536740550782	2136.377848107089	1058.319319795459	1019.85669184912	2348.150557130944	272.077180467084	1071.202576292683	2310.623365814336	291.6788192653194	1041.786048173732	2373.075966716354	351.6195525466375	1088.219389577165	2331.338121487281	368.1936481101694	1059.216158206456	2377.73084051762	679.14092241294	1113.468793368397	2332.121992259886	642.2656638835756	1072.951013981695	2299.156037267869	756.7851449373136	1127.862176767656	2255.772304558446	720.6955030644336	1089.742198967562	
3940	26.26	2295.90027586432	999.4193539241426	852.3563332357002	1621.693607317665	237.676529740674	909.0612800642546	1651.697731090094	226.9852149739569	864.7137072877279	1664.58050932168	257.3387141868386	904.9488583817633	2259.264278110991	1052.855194830404	828.1886247042473	1761.043718040395	72.54553465378032	943.7474711396507	1724.945908562273	87.37983965119587	838.4774452490634	2141.402832116819	1061.577018035515	922.1226759518933	1766.599555547766	277.5845995206121	843.3816198571624	1737.331891411696	304.1579250549581	882.8796445643138	1810.060087639531	344.7188343518067	832.1729081682896	1782.60562103154	370.6388845981201	870.5448383101756	2086.921206331454	696.1657777650112	801.8464193902914	2031.026263725692	721.910499873868	841.1201312537611	2124.656099388019	798.1837288019814	790.4392789659685	2073.361019292319	822.2211866355834	832.0117324466351	2284.854640538468	1017.90168212515	1079.291902740773	2457.817729033011	135.8052078422429	1020.968536492518	2263.797497691315	126.1266440458878	996.7708608783983	2289.828914976608	131.7165134004548	1043.350878977297	2280.252903518791	165.3112821405059	1001.838187917808	2229.125158659504	1070.010322130731	1119.951991991541	2474.413742701117	97.55839106419012	972.2751046148824	2444.548216271974	81.40573467668584	1076.21548492198	2138.676993928811	1061.199062054897	1019.801454727845	2369.672352746874	263.8920697068427	1071.625345137731	2331.481597383006	280.5777665911555	1041.355575980765	2388.186650819838	344.9895667884908	1089.082564047005	2345.998584938573	358.3160953056606	1059.119715837972	2375.484902816666	678.7096158346716	1113.371368602286	2329.426657260623	642.1617458792902	1072.84437768237	2298.110994891815	757.3053849795998	1127.100014834471	2254.472036877045	721.941951468923	1088.693679174143	
3941	26.26666666666667	2297.995540740428	1000.83279977555	852.5824215538373	1611.516098676288	257.2776971881369	905.4464096883144	1641.490098059567	244.27146805506	861.6538811677051	1655.994309735343	273.6927500186427	902.0362079850133	2261.994384305757	1055.6680420457	828.5255434203193	1738.504467713479	81.54604791238729	943.1435227651539	1705.439372792649	98.15766961920454	837.6377696388187	2143.562511554633	1064.729703731776	921.9262034325803	1756.482046144342	287.9510346261222	842.0862982351763	1727.378527533587	314.9935925189912	881.3990526807186	1801.356414117104	354.249779073807	831.5442240611054	1773.993497212306	380.6360573195768	869.6327726559441	2084.61297069557	700.5593943324481	802.8928166887414	2029.380201484732	727.6052160231815	842.4000634316527	2124.414238826343	801.7919531055711	790.8272846434046	2073.779112575537	827.0054781465067	832.7335080843932	2286.045643413127	1019.052455681389	1079.01925594103	2488.998922159228	135.7423345274863	1023.176836093773	2297.512317165524	110.0676635257987	994.9810648974341	2321.892928010526	117.6841685989634	1042.136679966459	2310.415108317752	150.3262140525317	1000.561568567234	2230.281112495157	1071.434160812287	1119.863984611942	2509.710626180058	99.54380966248705	974.6990675096658	2479.385430122604	80.58338806004461	1077.982851568134	2140.596179023717	1063.633183404488	1019.631065388772	2390.412873695626	256.4214913504822	1072.284853927758	2351.727633841037	270.2302305374576	1041.293150141949	2402.554436126249	338.5430714014836	1090.157149453436	2360.087367807048	348.66961626221	1059.402007599615	2372.233746313866	677.2378759821503	1113.627006309288	2325.92627788383	641.261400657353	1072.716991078392	2296.220212108247	756.9354687278558	1126.534772397779	2252.488442860747	722.4861886805733	1087.542903641486	
3942	26.27333333333333	2299.814899743082	1002.009960650763	852.7980018801234	1602.123151085363	276.7006840732814	902.3122908455416	1631.899365803046	261.5935468945811	859.0337311832232	1647.891391837395	290.051502142872	899.599078223961	2264.068704929633	1058.235008164258	828.6680595475607	1717.196273233236	92.04184452141483	942.7959163349674	1687.038474451889	110.1434190319437	837.077069496312	2145.344192036713	1067.435180764276	921.5727862338085	1747.164273778295	298.471013780152	841.1162211060249	1718.401316520161	326.2496572283194	880.1533774830611	1793.818672580718	363.563746162716	831.1023839108235	1766.712253336688	390.6770666797691	868.82430706557	2083.662621184624	703.7274867136631	803.8409520232959	2028.793051590402	731.766745115439	843.284447952097	2124.919635882768	804.3559730778419	791.0707080676245	2074.638499673878	830.4782449173355	833.0107894039169	2286.996468983401	1019.820186857419	1078.749447556403	2518.098260870485	137.1522445738261	1025.372245806951	2330.374668947939	95.78240623778282	993.765331889992	2353.099996358524	105.2512031114286	1041.40936889852	2339.65819038978	136.8310482654113	999.8185351323419	2231.301186282571	1072.353307061673	1119.738622401922	2542.625065528452	103.3719398571823	977.069003773589	2512.371916533747	81.47416441449634	1079.770102056222	2142.093296830337	1065.590495036616	1019.331445183491	2410.025389849964	249.7382351513639	1073.175416053536	2370.979398944772	260.7403036318187	1041.610501686721	2415.941353358928	332.4001428168287	1091.409666010242	2373.329939692324	339.4108281814167	1060.048324085085	2368.133478040361	674.9201556809646	1114.274972234028	2321.82002291497	639.7557537041342	1072.598206445683	2293.584947218917	755.8287198021433	1126.249128098022	2249.954460618189	722.4470818277578	1086.378461545257	
3943	26.28	2301.390395932493	1002.932916357691	853.0364820056086	1593.480976006056	295.8859343912892	899.847856217476	1622.886465364358	278.9138002855998	857.0071420085488	1640.246824751444	306.4129102161312	897.7686380577966	2265.544475670817	1060.476628145951	828.6489958444957	1697.362679459407	103.937685119724	942.7380137150649	1669.815888539406	123.271016819109	836.8336235323591	2146.754355371099	1069.617434212296	921.0563478600528	1738.628912921118	309.2030328758217	840.5070386511051	1710.439748422524	337.9607453568315	879.22077963009	1787.405594124527	372.6940921910666	830.8589209095109	1760.78427950965	400.7708000881196	868.1797927844026	2084.083778484554	705.5664619412497	804.6391487621805	2029.248267804217	734.2819304971524	843.7040928495873	2126.168261599478	805.8005534593464	791.1590243474225	2075.914374557055	832.556108044529	832.8202610384291	2287.68492976047	1020.268474069167	1078.532646442024	2544.648419181098	139.7722699746521	1027.494784785404	2361.65410412177	83.28283587324431	993.1975297971298	2382.797306133814	94.42072211812875	1041.229375502511	2367.337612422488	124.8598272237616	999.6752813684418	2232.118518983545	1072.841442431364	1119.589326427075	2572.602129221406	108.6710422844225	979.3037980731565	2542.981518729614	83.79828388825847	1081.519539579488	2143.150485569754	1067.051425155953	1018.895338432263	2428.1422941309	243.8680603965888	1074.280108942404	2388.840511218311	252.167188672561	1042.288503741556	2428.095443933203	326.6539555773526	1092.796890070779	2385.444516099935	330.6734313624417	1061.010575930352	2363.373508233821	671.97510574789	1115.307300772995	2317.305448548949	637.8370119430775	1072.517417788651	2290.343049049583	754.1625303113165	1126.286787046399	2247.013233746286	721.9582187263728	1085.28127765382	
